<mxfile host="app.diagrams.net" agent="Mozilla/5.0 (Windows NT 10.0; Win64; x64) AppleWebKit/537.36 (KHTML, like Gecko) Chrome/133.0.0.0 Safari/537.36" version="26.0.14">
  <diagram name="Pagina-1" id="DioCf2J1bDyCA_ETtJi_">
    <mxGraphModel dx="1050" dy="563" grid="1" gridSize="10" guides="1" tooltips="1" connect="1" arrows="1" fold="1" page="1" pageScale="1" pageWidth="827" pageHeight="1169" math="0" shadow="0">
      <root>
        <mxCell id="0" />
        <mxCell id="1" parent="0" />
        <mxCell id="28aXDkRx9Ifl6Shyp0V9-2" style="edgeStyle=orthogonalEdgeStyle;rounded=0;orthogonalLoop=1;jettySize=auto;html=1;" edge="1" parent="1" source="28aXDkRx9Ifl6Shyp0V9-1">
          <mxGeometry relative="1" as="geometry">
            <mxPoint x="255" y="260" as="targetPoint" />
          </mxGeometry>
        </mxCell>
        <mxCell id="28aXDkRx9Ifl6Shyp0V9-3" value="Inizio gioco" style="edgeLabel;html=1;align=center;verticalAlign=middle;resizable=0;points=[];" vertex="1" connectable="0" parent="28aXDkRx9Ifl6Shyp0V9-2">
          <mxGeometry x="-0.147" y="2" relative="1" as="geometry">
            <mxPoint x="-2" y="-19" as="offset" />
          </mxGeometry>
        </mxCell>
        <mxCell id="28aXDkRx9Ifl6Shyp0V9-1" value="READY" style="rounded=0;whiteSpace=wrap;html=1;fillColor=#dae8fc;strokeColor=#6c8ebf;" vertex="1" parent="1">
          <mxGeometry x="210" y="130" width="90" height="40" as="geometry" />
        </mxCell>
        <mxCell id="28aXDkRx9Ifl6Shyp0V9-14" style="edgeStyle=orthogonalEdgeStyle;rounded=0;orthogonalLoop=1;jettySize=auto;html=1;entryX=0;entryY=0.5;entryDx=0;entryDy=0;" edge="1" parent="1" source="28aXDkRx9Ifl6Shyp0V9-4" target="28aXDkRx9Ifl6Shyp0V9-13">
          <mxGeometry relative="1" as="geometry" />
        </mxCell>
        <mxCell id="28aXDkRx9Ifl6Shyp0V9-4" value="INIZIA TURNO" style="rounded=0;whiteSpace=wrap;html=1;fillColor=#dae8fc;strokeColor=#6c8ebf;" vertex="1" parent="1">
          <mxGeometry x="210" y="260" width="90" height="40" as="geometry" />
        </mxCell>
        <mxCell id="28aXDkRx9Ifl6Shyp0V9-16" style="edgeStyle=orthogonalEdgeStyle;rounded=0;orthogonalLoop=1;jettySize=auto;html=1;entryX=0.5;entryY=0;entryDx=0;entryDy=0;" edge="1" parent="1" source="28aXDkRx9Ifl6Shyp0V9-5" target="28aXDkRx9Ifl6Shyp0V9-11">
          <mxGeometry relative="1" as="geometry" />
        </mxCell>
        <mxCell id="28aXDkRx9Ifl6Shyp0V9-20" value="evento end" style="edgeLabel;html=1;align=center;verticalAlign=middle;resizable=0;points=[];" vertex="1" connectable="0" parent="28aXDkRx9Ifl6Shyp0V9-16">
          <mxGeometry x="-0.32" y="-3" relative="1" as="geometry">
            <mxPoint as="offset" />
          </mxGeometry>
        </mxCell>
        <mxCell id="28aXDkRx9Ifl6Shyp0V9-18" style="edgeStyle=orthogonalEdgeStyle;rounded=0;orthogonalLoop=1;jettySize=auto;html=1;entryX=0;entryY=0.5;entryDx=0;entryDy=0;" edge="1" parent="1" source="28aXDkRx9Ifl6Shyp0V9-5" target="28aXDkRx9Ifl6Shyp0V9-17">
          <mxGeometry relative="1" as="geometry" />
        </mxCell>
        <mxCell id="28aXDkRx9Ifl6Shyp0V9-19" value="evento&lt;br&gt;stop" style="edgeLabel;html=1;align=center;verticalAlign=middle;resizable=0;points=[];" vertex="1" connectable="0" parent="28aXDkRx9Ifl6Shyp0V9-18">
          <mxGeometry x="-0.2235" y="1" relative="1" as="geometry">
            <mxPoint as="offset" />
          </mxGeometry>
        </mxCell>
        <mxCell id="28aXDkRx9Ifl6Shyp0V9-5" value="AVVIA TIMER" style="rounded=0;whiteSpace=wrap;html=1;fillColor=#ffe6cc;strokeColor=#d79b00;" vertex="1" parent="1">
          <mxGeometry x="369" y="260" width="90" height="40" as="geometry" />
        </mxCell>
        <mxCell id="28aXDkRx9Ifl6Shyp0V9-23" style="edgeStyle=orthogonalEdgeStyle;rounded=0;orthogonalLoop=1;jettySize=auto;html=1;entryX=0.5;entryY=1;entryDx=0;entryDy=0;" edge="1" parent="1" source="28aXDkRx9Ifl6Shyp0V9-9" target="28aXDkRx9Ifl6Shyp0V9-4">
          <mxGeometry relative="1" as="geometry" />
        </mxCell>
        <mxCell id="28aXDkRx9Ifl6Shyp0V9-9" value="TURNO SUCCESSIVO" style="rounded=0;whiteSpace=wrap;html=1;fillColor=#dae8fc;strokeColor=#6c8ebf;" vertex="1" parent="1">
          <mxGeometry x="210" y="440" width="90" height="40" as="geometry" />
        </mxCell>
        <mxCell id="28aXDkRx9Ifl6Shyp0V9-21" style="edgeStyle=orthogonalEdgeStyle;rounded=0;orthogonalLoop=1;jettySize=auto;html=1;entryX=1;entryY=0.5;entryDx=0;entryDy=0;" edge="1" parent="1" source="28aXDkRx9Ifl6Shyp0V9-11" target="28aXDkRx9Ifl6Shyp0V9-9">
          <mxGeometry relative="1" as="geometry">
            <Array as="points">
              <mxPoint x="414" y="370" />
            </Array>
          </mxGeometry>
        </mxCell>
        <mxCell id="28aXDkRx9Ifl6Shyp0V9-22" value="callback&lt;br&gt;termine timer" style="edgeLabel;html=1;align=center;verticalAlign=middle;resizable=0;points=[];" vertex="1" connectable="0" parent="28aXDkRx9Ifl6Shyp0V9-21">
          <mxGeometry x="-0.1903" y="4" relative="1" as="geometry">
            <mxPoint x="-24" as="offset" />
          </mxGeometry>
        </mxCell>
        <mxCell id="28aXDkRx9Ifl6Shyp0V9-11" value="TERMINE TIMER" style="rounded=0;whiteSpace=wrap;html=1;fillColor=#ffe6cc;strokeColor=#d79b00;" vertex="1" parent="1">
          <mxGeometry x="369" y="360" width="90" height="40" as="geometry" />
        </mxCell>
        <mxCell id="28aXDkRx9Ifl6Shyp0V9-15" style="edgeStyle=orthogonalEdgeStyle;rounded=0;orthogonalLoop=1;jettySize=auto;html=1;entryX=0.5;entryY=0;entryDx=0;entryDy=0;" edge="1" parent="1" source="28aXDkRx9Ifl6Shyp0V9-13" target="28aXDkRx9Ifl6Shyp0V9-5">
          <mxGeometry relative="1" as="geometry" />
        </mxCell>
        <mxCell id="28aXDkRx9Ifl6Shyp0V9-13" value="RESET TIMER" style="rounded=0;whiteSpace=wrap;html=1;fillColor=#ffe6cc;strokeColor=#d79b00;" vertex="1" parent="1">
          <mxGeometry x="369" y="180" width="90" height="40" as="geometry" />
        </mxCell>
        <mxCell id="28aXDkRx9Ifl6Shyp0V9-17" value="FERMA TIMER" style="rounded=0;whiteSpace=wrap;html=1;fillColor=#ffe6cc;strokeColor=#d79b00;" vertex="1" parent="1">
          <mxGeometry x="570" y="260" width="90" height="40" as="geometry" />
        </mxCell>
        <mxCell id="28aXDkRx9Ifl6Shyp0V9-24" value="TIMER" style="text;html=1;align=center;verticalAlign=middle;whiteSpace=wrap;rounded=0;fillColor=none;strokeColor=none;fontStyle=1;fontColor=#D79B00;" vertex="1" parent="1">
          <mxGeometry x="470" y="180" width="60" height="30" as="geometry" />
        </mxCell>
        <mxCell id="28aXDkRx9Ifl6Shyp0V9-25" value="GAME" style="text;html=1;align=center;verticalAlign=middle;whiteSpace=wrap;rounded=0;strokeColor=none;fontColor=#6C8EBF;fontStyle=1" vertex="1" parent="1">
          <mxGeometry x="150" y="130" width="60" height="30" as="geometry" />
        </mxCell>
      </root>
    </mxGraphModel>
  </diagram>
</mxfile>
